<svg xmlns="http://www.w3.org/2000/svg" version="1.1" xmlns:xlink="http://www.w3.org/1999/xlink" xmlns:svgjs="http://svgjs.dev/svgjs" width="1500" height="1500" viewBox="0 0 1500 1500"><rect width="1500" height="1500" fill="#4d807b"></rect><g transform="matrix(0.6666666666666666,0,0,0.6666666666666666,249.39393939393938,518.238971776668)"><svg viewBox="0 0 396 183" data-background-color="#4d807b" preserveAspectRatio="xMidYMid meet" height="693" width="1500" xmlns="http://www.w3.org/2000/svg" xmlns:xlink="http://www.w3.org/1999/xlink"><g id="tight-bounds" transform="matrix(1,0,0,1,0.2400000000000091,0.3014462443068453)"><svg viewBox="0 0 395.52 182.3971075113863" height="182.3971075113863" width="395.52"><g><svg viewBox="0 0 395.52000000000004 182.39710751138634" height="182.3971075113863" width="395.52"><g transform="matrix(1,0,0,1,0,132.16130464239404)"><svg viewBox="0 0 395.52000000000004 50.23580286899229" height="50.23580286899229" width="395.52000000000004"><g id="textblocktransform"><svg viewBox="0 0 395.52000000000004 50.23580286899229" height="50.23580286899229" width="395.52000000000004" id="textblock"><g><svg viewBox="0 0 395.52000000000004 27.094791620727676" height="27.094791620727676" width="395.52000000000004"><g transform="matrix(1,0,0,1,0,0)"><svg width="395.52000000000004" viewBox="1.95 -34.95 680.1899999999999 46.6" height="27.094791620727676" data-palette-color="#e2f1e6"><path d="M31.2-29.3L28.35-26.4 27.65-26.45Q26.4-29.85 24.1-31.38 21.8-32.9 18.7-32.9L18.7-32.9Q15.3-32.9 12.95-31.55 10.6-30.2 9.15-27.9 7.7-25.6 7.05-22.83 6.4-20.05 6.4-17.2L6.4-17.2Q6.4-14.9 7.08-12.65 7.75-10.4 8.7-8.65 9.65-6.9 10.45-6.05L10.45-6.05Q12.5-4 14.43-2.95 16.35-1.9 19.4-1.9L19.4-1.9Q21.95-1.9 24.3-2.88 26.65-3.85 28.75-5.25L28.75-5.25 29.6-3.8Q26.9-1.95 23.9-0.6 20.9 0.75 17.65 0.75L17.65 0.75Q14.7 0.75 11.8-0.03 8.9-0.8 6.75-2.95L6.75-2.95Q4.15-5.6 3.05-9.13 1.95-12.65 1.95-16.3L1.95-16.3Q1.95-19.9 2.93-23.4 3.9-26.9 6.5-29.5L6.5-29.5Q9.25-32.25 12.88-33.6 16.5-34.95 20.4-34.95L20.4-34.95Q23.7-34.95 26.48-33.73 29.25-32.5 31.2-29.3L31.2-29.3ZM50.9-21.55L50.9-21.55 53.55-23.1 53.8-22.85Q53.5-17.4 53.5-11.95L53.5-11.95Q53.5-10.8 53.42-9.2 53.35-7.6 53.45-6.1 53.55-4.6 54-3.6 54.45-2.6 55.45-2.6L55.45-2.6Q56-2.6 56.95-2.9 57.9-3.2 58.7-3.5L58.7-3.5 59.05-2.3Q58.05-1.7 56.9-1.03 55.75-0.35 54.65 0.13 53.55 0.6 52.75 0.6L52.75 0.6Q51.35 0.6 50.75-0.25 50.15-1.1 49.9-2.35L49.9-2.35 49.15-2.55Q47.3-1.35 45.25-0.38 43.2 0.6 41 0.6L41 0.6Q38.9 0.6 37.5-0.3 36.1-1.2 35.25-2.65 34.4-4.1 34.02-5.83 33.65-7.55 33.65-9.25L33.65-9.25Q33.65-11.9 34.32-14.4 35-16.9 36.42-18.93 37.85-20.95 40.1-22.13 42.35-23.3 45.55-23.3L45.55-23.3Q46.75-23.3 48.22-22.85 49.7-22.4 50.9-21.55ZM49.8-4.95L49.8-4.95 49.8-16.45Q49.8-17.45 49.7-18.35 49.6-19.25 49-19.9L49-19.9Q48.35-20.6 47.45-21.08 46.55-21.55 45.6-21.55L45.6-21.55Q42.85-21.55 40.85-19.65L40.85-19.65Q40-18.85 39.12-16.7 38.25-14.55 38.15-10.75L38.15-10.75Q38.1-9.2 38.4-7.63 38.7-6.05 39.55-4.75L39.55-4.75Q40.35-3.5 41.72-3.1 43.1-2.7 44.5-2.7L44.5-2.7Q45.95-2.7 47.32-3.4 48.7-4.1 49.8-4.95ZM68.8-0.9L68.8-0.9 65.3 0.3 64.55-0.05Q64.59-1 64.67-2.85 64.75-4.7 64.82-6.93 64.89-9.15 64.95-11.28 65-13.4 65-14.9L65-14.9Q65-17.4 64.7-19.03 64.39-20.65 63.15-20.65L63.15-20.65Q62.34-20.65 61.42-20.13 60.5-19.6 59.4-18.9L59.4-18.9 58.55-20Q59.59-20.75 60.8-21.58 62-22.4 63.2-22.98 64.39-23.55 65.3-23.55L65.3-23.55Q67.2-23.55 67.95-22.55 68.7-21.55 68.9-20.15L68.9-20.15 69.3-19.85Q71.4-21.15 73.87-22.3 76.34-23.45 78.75-23.45L78.75-23.45Q79.84-23.45 80.87-23.15 81.9-22.85 82.59-22L82.59-22Q83.09-21.4 83.3-19.83 83.5-18.25 83.55-16.32 83.59-14.4 83.59-12.8L83.59-12.8Q83.59-9.05 83.62-6.9 83.65-4.75 84.12-3.88 84.59-3 86-3L86-3Q86.84-3 87.95-3.65 89.05-4.3 90-5L90-5 90.65-5 91.09-3.95Q89.4-2.25 87.22-0.88 85.05 0.5 83.25 0.5L83.25 0.5Q81.2 0.5 80.42-0.8 79.65-2.1 79.65-3.9L79.65-3.9 79.9-12.45Q79.9-16.2 78.97-18.35 78.05-20.5 75.4-20.5L75.4-20.5Q73.7-20.5 72-19.53 70.3-18.55 68.95-17.45L68.95-17.45Q68.84-14.75 68.75-11.65 68.65-8.55 68.65-5.8L68.65-5.8Q68.65-4.75 68.7-3.58 68.75-2.4 68.8-0.9ZM104.04-31.9L103.99-33 104.24-33.2 112.39-34.2 112.79-33.75 112.79-5.5Q112.89-4.4 113.24-3.4 113.59-2.4 114.69-2.4L114.69-2.4Q115.09-2.4 116.04-2.73 116.99-3.05 117.74-3.35L117.74-3.35 118.14-2.2Q116.69-1.2 114.92-0.13 113.14 0.95 111.69 0.95L111.69 0.95Q110.24 0.95 109.54-0.23 108.84-1.4 108.74-2.7L108.74-2.7Q106.84-1.4 104.54-0.25 102.24 0.9 100.04 0.9L100.04 0.9Q97.89 0.9 96.47 0 95.04-0.9 94.19-2.38 93.34-3.85 92.97-5.6 92.59-7.35 92.59-9L92.59-9Q92.59-11.65 93.32-14.15 94.04-16.65 95.49-18.68 96.94-20.7 99.17-21.9 101.39-23.1 104.44-23.1L104.44-23.1Q105.54-23.1 106.57-22.9 107.59-22.7 108.59-22.35L108.59-22.35 108.94-22.55Q108.94-23.9 108.92-25.4 108.89-26.9 108.84-28.18 108.79-29.45 108.59-30.1L108.59-30.1Q108.34-31 107.57-31.38 106.79-31.75 105.84-31.83 104.89-31.9 104.04-31.9L104.04-31.9ZM108.74-4.75L108.74-4.75 108.94-15.5Q108.94-16.85 108.64-18.23 108.34-19.6 107.34-20.5 106.34-21.4 104.24-21.4L104.24-21.4Q102.14-21.4 100.74-20.33 99.34-19.25 98.49-17.55 97.64-15.85 97.29-13.88 96.94-11.9 96.94-10.15L96.94-10.15Q96.94-8.4 97.49-6.6 98.04-4.8 99.32-3.6 100.59-2.4 102.84-2.4L102.84-2.4Q104.14-2.4 105.94-3.08 107.74-3.75 108.74-4.75ZM123.34 9.1L123.34 9.1 123.24 8.55 125.44 5.75 126.09 5.75Q126.89 7.15 128.24 8.38 129.59 9.6 131.29 9.6L131.29 9.6Q133.29 9.6 134.59 8.78 135.89 7.95 136.64 6.7 137.39 5.45 137.76 4.1 138.14 2.75 138.34 1.7L138.34 1.7Q138.59 0.45 138.64-0.78 138.69-2 138.74-3.2L138.74-3.2 138.44-3.45Q136.34-2.15 133.89-0.88 131.44 0.4 129.04 0.4L129.04 0.4Q127.24 0.4 126.19-0.4 125.14-1.2 124.64-2.48 124.14-3.75 123.99-5.18 123.84-6.6 123.84-7.85L123.84-7.85Q123.84-9.55 123.94-11.2 124.04-12.85 124.04-14.7L124.04-14.7Q124.04-17.4 123.67-18.95 123.29-20.5 121.74-20.5L121.74-20.5Q121.09-20.5 120.06-20.03 119.04-19.55 118.19-19.1L118.19-19.1 117.64-20.05Q117.89-20.25 118.69-20.78 119.49-21.3 120.52-21.9 121.54-22.5 122.64-22.95 123.74-23.4 124.59-23.4L124.59-23.4Q126.19-23.4 126.97-22.35 127.74-21.3 127.74-19.9L127.74-19.9Q127.74-17.8 127.64-15.65 127.54-13.5 127.54-11.3L127.54-11.3Q127.64-9 127.81-7.6 127.99-6.2 128.26-5.43 128.54-4.65 128.94-4.1L128.94-4.1Q129.49-3.4 130.34-3.1 131.19-2.8 132.09-2.8L132.09-2.8Q133.89-2.8 135.64-3.7 137.39-4.6 138.79-5.4L138.79-5.4Q138.84-6.7 138.87-8.05 138.89-9.4 138.89-10.75L138.89-10.75Q138.89-13.45 138.79-16.13 138.69-18.8 138.49-21.4L138.49-21.4 142.44-23.3 143.04-23.1Q142.79-19.3 142.74-15.5 142.69-11.7 142.66-8.28 142.64-4.85 142.51-2.1 142.39 0.65 141.99 2.45L141.99 2.45Q141.09 5.7 139.22 7.73 137.34 9.75 134.87 10.7 132.39 11.65 129.69 11.65L129.69 11.65Q127.94 11.65 126.14 10.9 124.34 10.15 123.34 9.1ZM167.79-1.15L167.69 0.05 154.44 0.05 154.44-1.25Q156.29-1.6 157.19-1.93 158.09-2.25 158.41-2.78 158.74-3.3 158.79-4.23 158.84-5.15 158.89-6.7L158.89-6.7 158.89-24.85Q158.89-26.3 158.86-27.75 158.84-29.2 158.74-30.6L158.74-30.6Q158.69-31.35 158.41-31.63 158.14-31.9 157.21-32.1 156.29-32.3 154.29-32.75L154.29-32.75 154.29-33.85 154.64-34.15 167.14-34.15 167.44-33.85 167.44-32.8 164.09-32.05Q163.09-31.8 162.99-30.75L162.99-30.75Q162.79-29.3 162.76-27.03 162.74-24.75 162.79-22.33 162.84-19.9 162.84-17.95L162.84-17.95Q162.84-15.45 162.86-13.1 162.89-10.75 162.94-8.45L162.94-8.45Q162.99-7.4 162.94-5.98 162.89-4.55 163.19-3.43 163.49-2.3 164.54-2L164.54-2Q165.09-1.85 165.84-1.65 166.59-1.45 167.19-1.3 167.79-1.15 167.79-1.15L167.79-1.15ZM177.78-0.9L177.78-0.9 174.28 0.3 173.53-0.05Q173.58-1 173.66-2.85 173.73-4.7 173.81-6.93 173.88-9.15 173.93-11.28 173.98-13.4 173.98-14.9L173.98-14.9Q173.98-17.4 173.68-19.03 173.38-20.65 172.13-20.65L172.13-20.65Q171.33-20.65 170.41-20.13 169.48-19.6 168.38-18.9L168.38-18.9 167.53-20Q168.58-20.75 169.78-21.58 170.98-22.4 172.18-22.98 173.38-23.55 174.28-23.55L174.28-23.55Q176.18-23.55 176.93-22.55 177.68-21.55 177.88-20.15L177.88-20.15 178.28-19.85Q180.38-21.15 182.86-22.3 185.33-23.45 187.73-23.45L187.73-23.45Q188.83-23.45 189.86-23.15 190.88-22.85 191.58-22L191.58-22Q192.08-21.4 192.28-19.83 192.48-18.25 192.53-16.32 192.58-14.4 192.58-12.8L192.58-12.8Q192.58-9.05 192.61-6.9 192.63-4.75 193.11-3.88 193.58-3 194.98-3L194.98-3Q195.83-3 196.93-3.65 198.03-4.3 198.98-5L198.98-5 199.63-5 200.08-3.95Q198.38-2.25 196.21-0.88 194.03 0.5 192.23 0.5L192.23 0.5Q190.18 0.5 189.41-0.8 188.63-2.1 188.63-3.9L188.63-3.9 188.88-12.45Q188.88-16.2 187.96-18.35 187.03-20.5 184.38-20.5L184.38-20.5Q182.68-20.5 180.98-19.53 179.28-18.55 177.93-17.45L177.93-17.45Q177.83-14.75 177.73-11.65 177.63-8.55 177.63-5.8L177.63-5.8Q177.63-4.75 177.68-3.58 177.73-2.4 177.78-0.9ZM217.73-21.25L220.23-23Q220.38-23.1 220.63-23.1L220.63-23.1Q221.33-23.1 222.13-21.7 222.93-20.3 222.93-18.1L222.93-18.1Q222.93-16.05 222.08-14.18 221.23-12.3 220.18-10.6L220.18-10.6Q218.48-7.9 216.46-5.5 214.43-3.1 212.23-0.85L212.23-0.85Q211.83-0.45 211.38 0 210.93 0.45 210.73 0.55L210.73 0.55 209.53 0.55 206.08-12.35Q205.53-14.5 204.91-16.32 204.28-18.15 203.63-19.28 202.98-20.4 202.18-20.4L202.18-20.4Q201.38-20.4 200.63-20.13 199.88-19.85 199.03-19.35L199.03-19.35 198.58-20.55Q199.93-21.5 201.66-22.48 203.38-23.45 204.83-23.45L204.83-23.45Q206.13-23.45 206.88-22.38 207.63-21.3 208.21-19.33 208.78-17.35 209.48-14.65L209.48-14.65Q209.78-13.55 210.18-11.78 210.58-10 211.06-8.25 211.53-6.5 212.01-5.3 212.48-4.1 212.88-4.1L212.88-4.1Q213.08-4.1 213.43-4.5 213.78-4.9 214.08-5.2L214.08-5.2Q215.33-6.7 216.56-8.43 217.78-10.15 218.61-12 219.43-13.85 219.43-15.6L219.43-15.6Q219.43-16.8 218.83-18.1 218.23-19.4 217.58-20.6L217.58-20.6Q217.53-20.65 217.53-20.85L217.53-20.85Q217.53-21.05 217.73-21.25L217.73-21.25ZM245.08-15.95L245.08-15.95 230.98-9.85Q231.13-8.3 231.8-6.65 232.48-5 233.85-3.9 235.23-2.8 237.43-2.8L237.43-2.8Q239.48-2.8 241.45-3.85 243.43-4.9 245.13-6.2L245.13-6.2 245.68-6.1 246.33-5.2Q244.78-3.75 242.95-2.43 241.13-1.1 239.1-0.25 237.08 0.6 234.93 0.6L234.93 0.6Q232.43 0.6 230.8-0.45 229.18-1.5 228.28-3.23 227.38-4.95 227-7.08 226.63-9.2 226.63-11.3L226.63-11.3Q226.63-13.5 227.18-15.6 227.73-17.7 229.18-19.4L229.18-19.4Q231.03-21.55 233.6-22.73 236.18-23.9 239.03-23.9L239.03-23.9Q242.28-23.9 244.2-21.9 246.13-19.9 246.13-17L246.13-17Q246.13-16.55 245.8-16.35 245.48-16.15 245.08-15.95ZM233.08-19.8L233.08-19.8Q231.63-18.25 231.2-16.55 230.78-14.85 230.78-13L230.78-13Q230.78-12.8 230.8-12.58 230.83-12.35 230.88-12.1L230.88-12.1 231.08-11.9 241.18-15.9Q241.43-16 241.63-16.3 241.83-16.6 241.83-17.2L241.83-17.2Q241.83-18.25 241.28-19.35 240.73-20.45 239.7-21.18 238.68-21.9 237.28-21.9L237.28-21.9Q236.03-21.9 234.95-21.35 233.88-20.8 233.08-19.8ZM257.08-0.9L257.08-0.9 253.58 0.3 252.83-0.05Q252.88-1 252.95-2.85 253.03-4.7 253.1-6.93 253.18-9.15 253.23-11.28 253.28-13.4 253.28-14.9L253.28-14.9Q253.28-17.4 252.98-19.03 252.68-20.65 251.43-20.65L251.43-20.65Q250.63-20.65 249.7-20.13 248.78-19.6 247.68-18.9L247.68-18.9 246.83-20Q247.88-20.75 249.08-21.58 250.28-22.4 251.48-22.98 252.68-23.55 253.58-23.55L253.58-23.55Q255.48-23.55 256.23-22.55 256.98-21.55 257.18-20.15L257.18-20.15 257.58-19.85Q259.68-21.15 262.15-22.3 264.63-23.45 267.03-23.45L267.03-23.45Q268.13-23.45 269.15-23.15 270.18-22.85 270.88-22L270.88-22Q271.38-21.4 271.58-19.83 271.78-18.25 271.83-16.32 271.88-14.4 271.88-12.8L271.88-12.8Q271.88-9.05 271.9-6.9 271.93-4.75 272.4-3.88 272.88-3 274.28-3L274.28-3Q275.13-3 276.23-3.65 277.33-4.3 278.28-5L278.28-5 278.93-5 279.38-3.95Q277.68-2.25 275.5-0.88 273.33 0.5 271.53 0.5L271.53 0.5Q269.48 0.5 268.7-0.8 267.93-2.1 267.93-3.9L267.93-3.9 268.18-12.45Q268.18-16.2 267.25-18.35 266.33-20.5 263.68-20.5L263.68-20.5Q261.98-20.5 260.28-19.53 258.58-18.55 257.23-17.45L257.23-17.45Q257.13-14.75 257.03-11.65 256.93-8.55 256.93-5.8L256.93-5.8Q256.93-4.75 256.98-3.58 257.03-2.4 257.08-0.9ZM284.92-29.1L284.92-29.1 289.12-30.55 289.47-30.3Q289.27-28.15 289.12-26.18 288.97-24.2 288.92-22L288.92-22 289.22-21.75 295.62-21.75 295.87-21.55 295.47-20.25 295.17-20 289.22-20 288.92-19.7 288.92-10.25Q288.92-8.5 289.15-6.75 289.37-5 290.15-3.88 290.92-2.75 292.47-2.75L292.47-2.75Q293.42-2.75 294.67-3.43 295.92-4.1 297.02-4.8L297.02-4.8 297.62-4.7 297.97-3.95Q296.27-2.35 294.12-0.95 291.97 0.45 289.77 0.45L289.77 0.45Q288.92 0.45 287.9 0.13 286.87-0.2 286.17-1.1L286.17-1.1Q285.67-1.8 285.42-2.6 285.17-3.4 285.1-5.1 285.02-6.8 285.02-10.15L285.02-10.15 285.02-19.65 284.72-20 279.12-20 278.87-20.25 279.22-21.45 279.52-21.75 284.72-21.75 285.02-22.05Q285.02-23.95 285.02-26.05 285.02-28.15 284.92-29.1ZM310.22 0.7L310.22 0.7Q306.77 0.7 304.7-0.83 302.62-2.35 301.67-4.75 300.72-7.15 300.52-9.8L300.52-9.8Q300.52-12.4 301-15 301.47-17.6 303.27-19.55L303.27-19.55Q305.02-21.5 307.55-22.38 310.07-23.25 312.67-23.25L312.67-23.25Q316.37-23.25 318.52-21.6 320.67-19.95 321.62-17.35 322.57-14.75 322.57-11.95L322.57-11.95Q322.57-9.5 321.95-7.15 321.32-4.8 319.67-2.95L319.67-2.95Q317.92-0.95 315.4-0.13 312.87 0.7 310.22 0.7ZM305.22-15.8L305.22-15.8Q305.02-14.85 304.92-13.9 304.82-12.95 304.82-11.95L304.82-11.95Q304.82-10.4 305.12-8.55 305.42-6.7 306.15-5.08 306.87-3.45 308.2-2.4 309.52-1.35 311.57-1.35L311.57-1.35Q313.62-1.35 314.9-2.25 316.17-3.15 316.87-4.6 317.57-6.05 317.85-7.75 318.12-9.45 318.12-11L318.12-11Q318.12-12.55 317.87-14.33 317.62-16.1 316.95-17.7 316.27-19.3 314.95-20.3 313.62-21.3 311.52-21.3L311.52-21.3Q309.52-21.3 307.72-19.95 305.92-18.6 305.22-15.8ZM345.27-19.4L342.57-16.95 341.97-17.2Q341.77-18.25 341.17-19.18 340.57-20.1 339.32-20.1L339.32-20.1Q337.77-20.1 336.82-19.05 335.87-18 335.47-17L335.47-17Q335.12-16.2 335.07-14.7 335.02-13.2 335.07-11.53 335.12-9.85 335.12-8.5L335.12-8.5Q335.12-4.75 335.27-0.9L335.27-0.9 331.77 0.15 331.02-0.3Q331.27-2.95 331.44-6.05 331.62-9.15 331.62-12.15L331.62-12.15Q331.62-14.1 331.57-16.05 331.52-18 331.07-19.3 330.62-20.6 329.47-20.6L329.47-20.6Q328.62-20.6 327.57-20.1 326.52-19.6 325.57-19.05L325.57-19.05 324.97-19.9Q325.97-20.7 327.14-21.55 328.32-22.4 329.52-23.03 330.72-23.65 331.72-23.65L331.72-23.65Q333.42-23.65 334.27-22.65 335.12-21.65 335.32-20.05L335.32-20.05 335.82-19.85Q336.57-20.55 337.49-21.38 338.42-22.2 339.42-22.78 340.42-23.35 341.32-23.35L341.32-23.35Q344.87-23.35 345.27-19.4L345.27-19.4ZM350.97 9.1L350.97 9.1 350.87 8.55 353.07 5.75 353.72 5.75Q354.52 7.15 355.87 8.38 357.22 9.6 358.92 9.6L358.92 9.6Q360.92 9.6 362.22 8.78 363.52 7.95 364.27 6.7 365.02 5.45 365.39 4.1 365.77 2.75 365.97 1.7L365.97 1.7Q366.22 0.45 366.27-0.78 366.32-2 366.37-3.2L366.37-3.2 366.07-3.45Q363.97-2.15 361.52-0.88 359.07 0.4 356.67 0.4L356.67 0.4Q354.87 0.4 353.82-0.4 352.77-1.2 352.27-2.48 351.77-3.75 351.62-5.18 351.47-6.6 351.47-7.85L351.47-7.85Q351.47-9.55 351.57-11.2 351.67-12.85 351.67-14.7L351.67-14.7Q351.67-17.4 351.29-18.95 350.92-20.5 349.37-20.5L349.37-20.5Q348.72-20.5 347.69-20.03 346.67-19.55 345.82-19.1L345.82-19.1 345.27-20.05Q345.52-20.25 346.32-20.78 347.12-21.3 348.14-21.9 349.17-22.5 350.27-22.95 351.37-23.4 352.22-23.4L352.22-23.4Q353.82-23.4 354.59-22.35 355.37-21.3 355.37-19.9L355.37-19.9Q355.37-17.8 355.27-15.65 355.17-13.5 355.17-11.3L355.17-11.3Q355.27-9 355.44-7.6 355.62-6.2 355.89-5.43 356.17-4.65 356.57-4.1L356.57-4.1Q357.12-3.4 357.97-3.1 358.82-2.8 359.72-2.8L359.72-2.8Q361.52-2.8 363.27-3.7 365.02-4.6 366.42-5.4L366.42-5.4Q366.47-6.7 366.49-8.05 366.52-9.4 366.52-10.75L366.52-10.75Q366.52-13.45 366.42-16.13 366.32-18.8 366.12-21.4L366.12-21.4 370.07-23.3 370.67-23.1Q370.42-19.3 370.37-15.5 370.32-11.7 370.29-8.28 370.27-4.85 370.14-2.1 370.02 0.65 369.62 2.45L369.62 2.45Q368.72 5.7 366.84 7.73 364.97 9.75 362.49 10.7 360.02 11.65 357.32 11.65L357.32 11.65Q355.57 11.65 353.77 10.9 351.97 10.15 350.97 9.1ZM405.41-7.35L419.21-34.5 424.36-34.5 424.36-33.9Q423.36-33.4 423.24-32.1 423.11-30.8 423.11-29.15L423.11-29.15Q423.11-23 423.24-17.13 423.36-11.25 424.01-5.1L424.01-5.1Q424.11-4 424.89-3.15 425.66-2.3 426.91-2.3L426.91-2.3Q427.41-2.3 428.24-2.43 429.06-2.55 429.71-2.6L429.71-2.6 429.71-1.4Q428.06-0.8 426.24-0.25 424.41 0.3 422.91 0.3L422.91 0.3Q421.81 0.3 420.79-0.1 419.76-0.5 419.76-1.45L419.76-1.45 419.76-10.55Q419.76-10.95 419.71-12.45 419.66-13.95 419.61-16.07 419.56-18.2 419.49-20.43 419.41-22.65 419.36-24.53 419.31-26.4 419.26-27.4L419.26-27.4Q419.26-28.15 418.86-28.15L418.86-28.15Q418.56-28.15 418.31-27.75L418.31-27.75 404.01-0.05 402.51-0.05Q401.11-3.45 399.56-7.13 398.01-10.8 396.49-14.45 394.96-18.1 393.54-21.3 392.11-24.5 390.91-26.9L390.91-26.9Q390.61-27.4 390.36-27.4L390.36-27.4Q390.11-27.4 389.81-25.8 389.51-24.2 389.19-21.6 388.86-19 388.56-15.95 388.26-12.9 387.99-9.93 387.71-6.95 387.54-4.63 387.36-2.3 387.26-1.15L387.26-1.15 383.51 0.15 383.16 0Q384.61-7.35 385.89-14.75 387.16-22.15 388.16-29.55L388.16-29.55Q388.21-29.7 388.21-29.85 388.21-30 388.21-30.15L388.21-30.15Q388.21-30.85 387.86-31.38 387.51-31.9 386.81-32.1L386.81-32.1 383.41-33.05 383.51-34.15 383.86-34.5 392.66-34.5Q394.06-30.5 395.96-25.95 397.86-21.4 400.04-16.73 402.21-12.05 404.26-7.6L404.26-7.6Q404.36-7.45 404.51-7.18 404.66-6.9 404.81-6.9L404.81-6.9Q405.21-6.9 405.41-7.35L405.41-7.35ZM449.01-21.55L449.01-21.55 451.66-23.1 451.91-22.85Q451.61-17.4 451.61-11.95L451.61-11.95Q451.61-10.8 451.53-9.2 451.46-7.6 451.56-6.1 451.66-4.6 452.11-3.6 452.56-2.6 453.56-2.6L453.56-2.6Q454.11-2.6 455.06-2.9 456.01-3.2 456.81-3.5L456.81-3.5 457.16-2.3Q456.16-1.7 455.01-1.03 453.86-0.35 452.76 0.13 451.66 0.6 450.86 0.6L450.86 0.6Q449.46 0.6 448.86-0.25 448.26-1.1 448.01-2.35L448.01-2.35 447.26-2.55Q445.41-1.35 443.36-0.38 441.31 0.6 439.11 0.6L439.11 0.6Q437.01 0.6 435.61-0.3 434.21-1.2 433.36-2.65 432.51-4.1 432.13-5.83 431.76-7.55 431.76-9.25L431.76-9.25Q431.76-11.9 432.43-14.4 433.11-16.9 434.53-18.93 435.96-20.95 438.21-22.13 440.46-23.3 443.66-23.3L443.66-23.3Q444.86-23.3 446.33-22.85 447.81-22.4 449.01-21.55ZM447.91-4.95L447.91-4.95 447.91-16.45Q447.91-17.45 447.81-18.35 447.71-19.25 447.11-19.9L447.11-19.9Q446.46-20.6 445.56-21.08 444.66-21.55 443.71-21.55L443.71-21.55Q440.96-21.55 438.96-19.65L438.96-19.65Q438.11-18.85 437.23-16.7 436.36-14.55 436.26-10.75L436.26-10.75Q436.21-9.2 436.51-7.63 436.81-6.05 437.66-4.75L437.66-4.75Q438.46-3.5 439.83-3.1 441.21-2.7 442.61-2.7L442.61-2.7Q444.06-2.7 445.43-3.4 446.81-4.1 447.91-4.95ZM466.91-0.9L466.91-0.9 463.41 0.3 462.66-0.05Q462.71-1 462.78-2.85 462.86-4.7 462.93-6.93 463.01-9.15 463.06-11.28 463.11-13.4 463.11-14.9L463.11-14.9Q463.11-17.4 462.81-19.03 462.51-20.65 461.26-20.65L461.26-20.65Q460.46-20.65 459.53-20.13 458.61-19.6 457.51-18.9L457.51-18.9 456.66-20Q457.71-20.75 458.91-21.58 460.11-22.4 461.31-22.98 462.51-23.55 463.41-23.55L463.41-23.55Q465.31-23.55 466.06-22.55 466.81-21.55 467.01-20.15L467.01-20.15 467.41-19.85Q469.51-21.15 471.98-22.3 474.46-23.45 476.86-23.45L476.86-23.45Q477.96-23.45 478.98-23.15 480.01-22.85 480.71-22L480.71-22Q481.21-21.4 481.41-19.83 481.61-18.25 481.66-16.32 481.71-14.4 481.71-12.8L481.71-12.8Q481.71-9.05 481.73-6.9 481.76-4.75 482.23-3.88 482.71-3 484.11-3L484.11-3Q484.96-3 486.06-3.65 487.16-4.3 488.11-5L488.11-5 488.76-5 489.21-3.95Q487.51-2.25 485.33-0.88 483.16 0.5 481.36 0.5L481.36 0.5Q479.31 0.5 478.53-0.8 477.76-2.1 477.76-3.9L477.76-3.9 478.01-12.45Q478.01-16.2 477.08-18.35 476.16-20.5 473.51-20.5L473.51-20.5Q471.81-20.5 470.11-19.53 468.41-18.55 467.06-17.45L467.06-17.45Q466.96-14.75 466.86-11.65 466.76-8.55 466.76-5.8L466.76-5.8Q466.76-4.75 466.81-3.58 466.86-2.4 466.91-0.9ZM507.95-21.55L507.95-21.55 510.6-23.1 510.85-22.85Q510.55-17.4 510.55-11.95L510.55-11.95Q510.55-10.8 510.48-9.2 510.4-7.6 510.5-6.1 510.6-4.6 511.05-3.6 511.5-2.6 512.5-2.6L512.5-2.6Q513.05-2.6 514-2.9 514.95-3.2 515.75-3.5L515.75-3.5 516.1-2.3Q515.1-1.7 513.95-1.03 512.8-0.35 511.7 0.13 510.6 0.6 509.8 0.6L509.8 0.6Q508.4 0.6 507.8-0.25 507.2-1.1 506.95-2.35L506.95-2.35 506.2-2.55Q504.35-1.35 502.3-0.38 500.25 0.6 498.05 0.6L498.05 0.6Q495.95 0.6 494.55-0.3 493.15-1.2 492.3-2.65 491.45-4.1 491.08-5.83 490.7-7.55 490.7-9.25L490.7-9.25Q490.7-11.9 491.38-14.4 492.05-16.9 493.48-18.93 494.9-20.95 497.15-22.13 499.4-23.3 502.6-23.3L502.6-23.3Q503.8-23.3 505.28-22.85 506.75-22.4 507.95-21.55ZM506.85-4.95L506.85-4.95 506.85-16.45Q506.85-17.45 506.75-18.35 506.65-19.25 506.05-19.9L506.05-19.9Q505.4-20.6 504.5-21.08 503.6-21.55 502.65-21.55L502.65-21.55Q499.9-21.55 497.9-19.65L497.9-19.65Q497.05-18.85 496.18-16.7 495.3-14.55 495.2-10.75L495.2-10.75Q495.15-9.2 495.45-7.63 495.75-6.05 496.6-4.75L496.6-4.75Q497.4-3.5 498.78-3.1 500.15-2.7 501.55-2.7L501.55-2.7Q503-2.7 504.38-3.4 505.75-4.1 506.85-4.95ZM534.35-2.25L533.9-2.6Q531.95-1.5 529.83-0.48 527.7 0.55 525.35 0.55L525.35 0.55Q523.3 0.55 521.65-0.68 520-1.9 519.05-4.1 518.1-6.3 518.1-9.2L518.1-9.2Q518.1-13.65 519.63-16.8 521.15-19.95 523.75-21.6 526.35-23.25 529.55-23.25L529.55-23.25Q531.1-23.25 532.63-22.88 534.15-22.5 535.4-21.55L535.4-21.55 537.95-23 538.65-22.7Q538.55-21 538.48-19.33 538.4-17.65 538.33-15.6 538.25-13.55 538.23-10.78 538.2-8 538.2-4.1L538.2-4.1Q538.2-2.65 538.03-0.28 537.85 2.1 537.1 4.3L537.1 4.3Q536.5 5.95 535.35 7.18 534.2 8.4 533.45 8.95L533.45 8.95Q531.55 10.4 529.6 11.03 527.65 11.65 525.35 11.65L525.35 11.65Q523.7 11.65 522 11.1 520.3 10.55 518.45 8.85L518.45 8.85 520.9 5.75 521.6 5.75Q522.05 6.65 522.9 7.53 523.75 8.4 524.73 9 525.7 9.6 526.6 9.6L526.6 9.6Q529.25 9.6 530.93 8 532.6 6.4 533.43 3.7 534.25 1 534.35-2.25L534.35-2.25ZM534.35-4.95L534.35-4.95 534.35-18.15Q534.25-19.9 532.88-20.73 531.5-21.55 529.9-21.55L529.9-21.55Q527.7-21.55 526.25-20.43 524.8-19.3 523.95-17.53 523.1-15.75 522.75-13.8 522.4-11.85 522.4-10.15L522.4-10.15Q522.4-7.9 523.3-6.2 524.2-4.5 525.53-3.55 526.85-2.6 528.1-2.6L528.1-2.6Q529.25-2.6 530.48-3 531.7-3.4 532.75-3.95 533.8-4.5 534.35-4.95ZM562.5-15.95L562.5-15.95 548.4-9.85Q548.55-8.3 549.22-6.65 549.9-5 551.27-3.9 552.65-2.8 554.85-2.8L554.85-2.8Q556.9-2.8 558.87-3.85 560.85-4.9 562.55-6.2L562.55-6.2 563.1-6.1 563.75-5.2Q562.2-3.75 560.37-2.43 558.55-1.1 556.52-0.25 554.5 0.6 552.35 0.6L552.35 0.6Q549.85 0.6 548.22-0.45 546.6-1.5 545.7-3.23 544.8-4.95 544.42-7.08 544.05-9.2 544.05-11.3L544.05-11.3Q544.05-13.5 544.6-15.6 545.15-17.7 546.6-19.4L546.6-19.4Q548.45-21.55 551.02-22.73 553.6-23.9 556.45-23.9L556.45-23.9Q559.7-23.9 561.62-21.9 563.55-19.9 563.55-17L563.55-17Q563.55-16.55 563.22-16.35 562.9-16.15 562.5-15.95ZM550.5-19.8L550.5-19.8Q549.05-18.25 548.62-16.55 548.2-14.85 548.2-13L548.2-13Q548.2-12.8 548.22-12.58 548.25-12.35 548.3-12.1L548.3-12.1 548.5-11.9 558.6-15.9Q558.85-16 559.05-16.3 559.25-16.6 559.25-17.2L559.25-17.2Q559.25-18.25 558.7-19.35 558.15-20.45 557.12-21.18 556.1-21.9 554.7-21.9L554.7-21.9Q553.45-21.9 552.37-21.35 551.3-20.8 550.5-19.8ZM584.39 0.5L583.89 0.2Q583.89-0.6 584.02-2.75 584.14-4.9 584.27-7.75 584.39-10.6 584.39-13.45L584.39-13.45Q584.39-16.55 583.6-18.28 582.79-20 580.29-20L580.29-20Q579.14-20 577.87-19.53 576.6-19.05 575.64-18.5 574.7-17.95 574.45-17.8L574.45-17.8Q574.35-15.1 574.27-12.4 574.2-9.7 574.2-6.95L574.2-6.95Q574.2-5.4 574.22-3.83 574.25-2.25 574.29-0.7L574.29-0.7 570.95 0.5 570.25 0.1Q570.29-3.35 570.45-6.8 570.6-10.25 570.6-13.65L570.6-13.65Q570.6-15.55 570.52-17.13 570.45-18.7 570.04-19.65 569.64-20.6 568.6-20.6L568.6-20.6Q568-20.6 566.85-20.13 565.7-19.65 564.85-19.15L564.85-19.15 564.25-20.1Q565.75-21.3 567.5-22.4 569.25-23.5 571.1-23.55L571.1-23.55Q573-23.55 573.6-22.4 574.2-21.25 574.2-19.85L574.2-19.85 574.6-19.55Q576.54-20.6 578.75-21.78 580.95-22.95 583.2-22.95L583.2-22.95Q584.6-22.95 585.79-22.25 587-21.55 587.7-20.35L587.7-20.35 588.5-20.25Q589.45-20.75 590.75-21.4 592.04-22.05 593.54-22.53 595.04-23 596.5-23L596.5-23Q597.6-23 598.62-22.73 599.64-22.45 600.45-21.65L600.45-21.65Q601.45-20.65 601.45-18.4 601.45-16.15 601.45-12.4L601.45-12.4 601.45-5.85Q601.45-5.2 601.62-4.42 601.79-3.65 602.35-3.13 602.89-2.6 604-2.6L604-2.6Q604.79-2.6 605.87-3.28 606.95-3.95 607.85-4.6L607.85-4.6 608.54-4.6 608.89-3.55Q607.79-2.55 606.5-1.5 605.2-0.45 603.79 0.23 602.39 0.9 600.89 0.9L600.89 0.9Q599.14 0.9 598.32-0.33 597.5-1.55 597.5-2.95L597.5-2.95Q597.5-3.25 597.54-4.4 597.6-5.55 597.62-7.13 597.64-8.7 597.7-10.38 597.75-12.05 597.75-13.45L597.75-13.45Q597.75-16.55 596.85-18.28 595.95-20 593.5-20L593.5-20Q591.64-20 590.29-19.45 588.95-18.9 587.89-18.3L587.89-18.3Q587.85-16.6 587.82-14.88 587.79-13.15 587.79-11.4L587.79-11.4Q587.79-6.1 588.1-0.9L588.1-0.9 584.39 0.5ZM629.24-15.95L629.24-15.95 615.14-9.85Q615.29-8.3 615.97-6.65 616.64-5 618.02-3.9 619.39-2.8 621.59-2.8L621.59-2.8Q623.64-2.8 625.62-3.85 627.59-4.9 629.29-6.2L629.29-6.2 629.84-6.1 630.49-5.2Q628.94-3.75 627.12-2.43 625.29-1.1 623.27-0.25 621.24 0.6 619.09 0.6L619.09 0.6Q616.59 0.6 614.97-0.45 613.34-1.5 612.44-3.23 611.54-4.95 611.17-7.08 610.79-9.2 610.79-11.3L610.79-11.3Q610.79-13.5 611.34-15.6 611.89-17.7 613.34-19.4L613.34-19.4Q615.19-21.55 617.77-22.73 620.34-23.9 623.19-23.9L623.19-23.9Q626.44-23.9 628.37-21.9 630.29-19.9 630.29-17L630.29-17Q630.29-16.55 629.97-16.35 629.64-16.15 629.24-15.95ZM617.24-19.8L617.24-19.8Q615.79-18.25 615.37-16.55 614.94-14.85 614.94-13L614.94-13Q614.94-12.8 614.97-12.58 614.99-12.35 615.04-12.1L615.04-12.1 615.24-11.9 625.34-15.9Q625.59-16 625.79-16.3 625.99-16.6 625.99-17.2L625.99-17.2Q625.99-18.25 625.44-19.35 624.89-20.45 623.87-21.18 622.84-21.9 621.44-21.9L621.44-21.9Q620.19-21.9 619.12-21.35 618.04-20.8 617.24-19.8ZM641.24-0.9L641.24-0.9 637.74 0.3 636.99-0.05Q637.04-1 637.11-2.85 637.19-4.7 637.26-6.93 637.34-9.15 637.39-11.28 637.44-13.4 637.44-14.9L637.44-14.9Q637.44-17.4 637.14-19.03 636.84-20.65 635.59-20.65L635.59-20.65Q634.79-20.65 633.86-20.13 632.94-19.6 631.84-18.9L631.84-18.9 630.99-20Q632.04-20.75 633.24-21.58 634.44-22.4 635.64-22.98 636.84-23.55 637.74-23.55L637.74-23.55Q639.64-23.55 640.39-22.55 641.14-21.55 641.34-20.15L641.34-20.15 641.74-19.85Q643.84-21.15 646.31-22.3 648.79-23.45 651.19-23.45L651.19-23.45Q652.29-23.45 653.31-23.15 654.34-22.85 655.04-22L655.04-22Q655.54-21.4 655.74-19.83 655.94-18.25 655.99-16.32 656.04-14.4 656.04-12.8L656.04-12.8Q656.04-9.05 656.06-6.9 656.09-4.75 656.56-3.88 657.04-3 658.44-3L658.44-3Q659.29-3 660.39-3.65 661.49-4.3 662.44-5L662.44-5 663.09-5 663.54-3.95Q661.84-2.25 659.66-0.88 657.49 0.5 655.69 0.5L655.69 0.5Q653.64 0.5 652.86-0.8 652.09-2.1 652.09-3.9L652.09-3.9 652.34-12.45Q652.34-16.2 651.41-18.35 650.49-20.5 647.84-20.5L647.84-20.5Q646.14-20.5 644.44-19.53 642.74-18.55 641.39-17.45L641.39-17.45Q641.29-14.75 641.19-11.65 641.09-8.55 641.09-5.8L641.09-5.8Q641.09-4.75 641.14-3.58 641.19-2.4 641.24-0.9ZM669.09-29.1L669.09-29.1 673.29-30.55 673.64-30.3Q673.44-28.15 673.29-26.18 673.14-24.2 673.09-22L673.09-22 673.39-21.75 679.79-21.75 680.04-21.55 679.64-20.25 679.34-20 673.39-20 673.09-19.7 673.09-10.25Q673.09-8.5 673.31-6.75 673.54-5 674.31-3.88 675.09-2.75 676.64-2.75L676.64-2.75Q677.59-2.75 678.84-3.43 680.09-4.1 681.19-4.8L681.19-4.8 681.79-4.7 682.14-3.95Q680.44-2.35 678.29-0.95 676.14 0.45 673.94 0.45L673.94 0.45Q673.09 0.45 672.06 0.13 671.04-0.2 670.34-1.1L670.34-1.1Q669.84-1.8 669.59-2.6 669.34-3.4 669.26-5.1 669.19-6.8 669.19-10.15L669.19-10.15 669.19-19.65 668.89-20 663.29-20 663.04-20.25 663.39-21.45 663.69-21.75 668.89-21.75 669.19-22.05Q669.19-23.95 669.19-26.05 669.19-28.15 669.09-29.1Z" opacity="1" transform="matrix(1,0,0,1,0,0)" fill="#e2f1e6" class="wordmark-text-0" data-fill-palette-color="primary" id="text-0"></path></svg></g></svg></g><g transform="matrix(1,0,0,1,0,33.49122164738258)"><svg viewBox="0 0 395.52000000000004 16.744581221609703" height="16.744581221609703" width="395.52000000000004"><g transform="matrix(1,0,0,1,0,0)"><svg width="395.52000000000004" viewBox="0.05 -35.1 850.35 36" height="16.744581221609703" data-palette-color="#e2f1e6"><path d="M4.35-18L4.35-18 4.45-26.05Q4.45-27.15 4.45-28.53 4.45-29.9 4.13-31 3.8-32.1 2.8-32.35L2.8-32.35 0.05-33 0.05-34.05 0.4-34.4Q3.05-34.4 6.15-34.4 9.25-34.4 12.23-34.4 15.2-34.4 17.65-34.43 20.1-34.45 21.45-34.5L21.45-34.5 21.45-31.85 21.05-31.45Q18.35-31.65 15.65-32.05 12.95-32.45 10.25-32.45L10.25-32.45Q9.75-32.45 9.3-32.2 8.85-31.95 8.65-31.3L8.65-31.3Q8.6-31.05 8.53-30.63 8.45-30.2 8.4-29.1 8.35-28 8.33-25.75 8.3-23.5 8.3-19.55L8.3-19.55Q8.3-19.35 8.45-19.13 8.6-18.9 8.95-18.9L8.95-18.9Q11.7-18.9 14.85-19.15 18-19.4 20.7-19.5L20.7-19.5 20.65-17.05 20.4-16.8Q17.8-16.95 14.7-17 11.6-17.05 8.95-17.05L8.95-17.05Q8.75-17.05 8.55-16.9 8.35-16.75 8.35-16.5L8.35-16.5Q8.35-12.7 8.4-8.58 8.45-4.45 8.6-0.65L8.6-0.65 4 0.1Q4.15-4.45 4.25-8.95 4.35-13.45 4.35-18ZM67.89-19.4L67.89-19.4 65.19-16.95 64.59-17.2Q64.39-18.25 63.79-19.18 63.19-20.1 61.94-20.1L61.94-20.1Q60.39-20.1 59.44-19.05 58.49-18 58.09-17L58.09-17Q57.74-16.2 57.69-14.7 57.64-13.2 57.69-11.53 57.74-9.85 57.74-8.5L57.74-8.5Q57.74-4.75 57.89-0.9L57.89-0.9 54.39 0.15 53.64-0.3Q53.89-2.95 54.06-6.05 54.24-9.15 54.24-12.15L54.24-12.15Q54.24-14.1 54.19-16.05 54.14-18 53.69-19.3 53.24-20.6 52.09-20.6L52.09-20.6Q51.24-20.6 50.19-20.1 49.14-19.6 48.19-19.05L48.19-19.05 47.59-19.9Q48.59-20.7 49.76-21.55 50.94-22.4 52.14-23.03 53.34-23.65 54.34-23.65L54.34-23.65Q56.04-23.65 56.89-22.65 57.74-21.65 57.94-20.05L57.94-20.05 58.44-19.85Q59.19-20.55 60.11-21.38 61.04-22.2 62.04-22.78 63.04-23.35 63.94-23.35L63.94-23.35Q67.49-23.35 67.89-19.4ZM114.48-2.95L114.48-2.95Q112.73-0.95 110.2-0.13 107.68 0.7 105.03 0.7L105.03 0.7Q101.58 0.7 99.5-0.83 97.43-2.35 96.48-4.75 95.53-7.15 95.33-9.8L95.33-9.8Q95.33-12.4 95.8-15 96.28-17.6 98.08-19.55L98.08-19.55Q99.83-21.5 102.35-22.38 104.88-23.25 107.48-23.25L107.48-23.25Q111.18-23.25 113.33-21.6 115.48-19.95 116.43-17.35 117.38-14.75 117.38-11.95L117.38-11.95Q117.38-9.5 116.75-7.15 116.13-4.8 114.48-2.95ZM106.33-21.3L106.33-21.3Q104.33-21.3 102.53-19.95 100.73-18.6 100.03-15.8L100.03-15.8Q99.83-14.85 99.73-13.9 99.63-12.95 99.63-11.95L99.63-11.95Q99.63-10.4 99.93-8.55 100.23-6.7 100.95-5.08 101.68-3.45 103-2.4 104.33-1.35 106.38-1.35L106.38-1.35Q108.43-1.35 109.7-2.25 110.98-3.15 111.68-4.6 112.38-6.05 112.65-7.75 112.93-9.45 112.93-11L112.93-11Q112.93-12.55 112.68-14.33 112.43-16.1 111.75-17.7 111.08-19.3 109.75-20.3 108.43-21.3 106.33-21.3ZM168.66-0.9L164.96 0.5 164.46 0.2Q164.46-0.6 164.59-2.75 164.71-4.9 164.84-7.75 164.96-10.6 164.96-13.45L164.96-13.45Q164.96-16.55 164.16-18.28 163.36-20 160.86-20L160.86-20Q159.71-20 158.44-19.53 157.16-19.05 156.21-18.5 155.26-17.95 155.01-17.8L155.01-17.8Q154.91-15.1 154.84-12.4 154.76-9.7 154.76-6.95L154.76-6.95Q154.76-5.4 154.79-3.83 154.81-2.25 154.86-0.7L154.86-0.7 151.51 0.5 150.81 0.1Q150.86-3.35 151.01-6.8 151.16-10.25 151.16-13.65L151.16-13.65Q151.16-15.55 151.09-17.13 151.01-18.7 150.61-19.65 150.21-20.6 149.16-20.6L149.16-20.6Q148.56-20.6 147.41-20.13 146.26-19.65 145.41-19.15L145.41-19.15 144.81-20.1Q146.31-21.3 148.06-22.4 149.81-23.5 151.66-23.55L151.66-23.55Q153.56-23.55 154.16-22.4 154.76-21.25 154.76-19.85L154.76-19.85 155.16-19.55Q157.11-20.6 159.31-21.78 161.51-22.95 163.76-22.95L163.76-22.95Q165.16-22.95 166.36-22.25 167.56-21.55 168.26-20.35L168.26-20.35 169.06-20.25Q170.01-20.75 171.31-21.4 172.61-22.05 174.11-22.53 175.61-23 177.06-23L177.06-23Q178.16-23 179.19-22.73 180.21-22.45 181.01-21.65L181.01-21.65Q182.01-20.65 182.01-18.4 182.01-16.15 182.01-12.4L182.01-12.4 182.01-5.85Q182.01-5.2 182.19-4.42 182.36-3.65 182.91-3.13 183.46-2.6 184.56-2.6L184.56-2.6Q185.36-2.6 186.44-3.28 187.51-3.95 188.41-4.6L188.41-4.6 189.11-4.6 189.46-3.55Q188.36-2.55 187.06-1.5 185.76-0.45 184.36 0.23 182.96 0.9 181.46 0.9L181.46 0.9Q179.71 0.9 178.89-0.33 178.06-1.55 178.06-2.95L178.06-2.95Q178.06-3.25 178.11-4.4 178.16-5.55 178.19-7.13 178.21-8.7 178.26-10.38 178.31-12.05 178.31-13.45L178.31-13.45Q178.31-16.55 177.41-18.28 176.51-20 174.06-20L174.06-20Q172.21-20 170.86-19.45 169.51-18.9 168.46-18.3L168.46-18.3Q168.41-16.6 168.39-14.88 168.36-13.15 168.36-11.4L168.36-11.4Q168.36-6.1 168.66-0.9L168.66-0.9ZM269.89-30.3L269.89-30.3 266.74-27.5 266.09-27.65Q265.44-30.15 263.99-31.7 262.54-33.25 259.99-33.25L259.99-33.25Q257.59-33.25 256.02-31.53 254.44-29.8 254.44-27.35L254.44-27.35Q254.44-25.4 255.54-23.95 256.64-22.5 258.39-21.4 260.14-20.3 262.09-19.45L262.09-19.45Q266.04-17.75 268.04-15.6 270.04-13.45 270.04-10.45L270.04-10.45Q270.04-8 268.82-5.93 267.59-3.85 265.59-2.38 263.59-0.9 261.19-0.08 258.79 0.75 256.39 0.75L256.39 0.75Q253.79 0.75 251.49-0.43 249.19-1.6 248.14-4.35L248.14-4.35 250.99-7.65 251.84-7.6Q252.64-5 254.24-3.28 255.84-1.55 258.49-1.55L258.49-1.55Q260.44-1.55 262.07-2.53 263.69-3.5 264.67-5.15 265.64-6.8 265.64-8.9L265.64-8.9Q265.64-10.3 264.77-11.63 263.89-12.95 262.49-14 261.09-15.05 259.59-15.7L259.59-15.7Q256.59-17 254.54-18.35 252.49-19.7 251.47-21.43 250.44-23.15 250.44-25.6L250.44-25.6Q250.44-28.75 251.97-30.85 253.49-32.95 255.92-34.02 258.34-35.1 261.04-35.1L261.04-35.1Q262.89-35.1 264.49-34.77 266.09-34.45 267.44-33.43 268.79-32.4 269.89-30.3ZM330.48-20.8L330.48-20.8Q330.43-20.9 330.43-21.1L330.43-21.1Q330.43-21.4 330.53-21.45L330.53-21.45 333.38-23.2Q333.43-23.25 333.68-23.25L333.68-23.25Q334.33-23.25 334.8-22.3 335.28-21.35 335.55-20.2 335.83-19.05 335.83-18.45L335.83-18.45Q335.83-16.4 334.95-14.48 334.08-12.55 333.03-10.8L333.03-10.8Q331.33-8.05 329.33-5.53 327.33-3 325.13-0.65L325.13-0.65Q324.78-0.3 324.33 0.05 323.88 0.4 323.38 0.4L323.38 0.4Q322.98 0.4 322.58 0.05 322.18-0.3 322.08-0.65L322.08-0.65Q321.78-1.55 321.23-3.48 320.68-5.4 320.03-7.85 319.38-10.3 318.73-12.83 318.08-15.35 317.53-17.5L317.53-17.5Q317.48-17.65 317.38-17.82 317.28-18 317.08-18L317.08-18Q316.63-18 316.53-17.75L316.53-17.75Q314.43-13.9 312.03-9.3 309.63-4.7 307.58-0.25L307.58-0.25 305.48 0.4 305.13 0.1 303.93-11.1Q303.53-14.7 303.05-16.65 302.58-18.6 302.1-19.43 301.63-20.25 301.25-20.43 300.88-20.6 300.68-20.6L300.68-20.6Q299.83-20.6 298.68-20.1 297.53-19.6 296.53-19.05L296.53-19.05 296.08-20.05Q297.08-20.75 298.23-21.55 299.38-22.35 300.58-22.9 301.78-23.45 302.78-23.45L302.78-23.45Q304.13-23.45 304.9-22.68 305.68-21.9 306.08-20.8 306.48-19.7 306.68-18.65L306.68-18.65Q307.23-15.65 307.5-12.6 307.78-9.55 308.13-6.5L308.13-6.5 308.68-6.4Q310.83-10.25 312.93-14.18 315.03-18.1 316.98-22.05L316.98-22.05 319.58-23.35 320.18-23.2Q321.18-18.5 322.28-13.88 323.38-9.25 325.03-4.8L325.03-4.8Q325.13-4.55 325.38-4.3 325.63-4.05 325.93-4.05L325.93-4.05Q326.08-4.05 326.33-4.23 326.58-4.4 326.68-4.55L326.68-4.55Q327.98-6.15 329.28-7.93 330.58-9.7 331.48-11.65 332.38-13.6 332.38-15.6L332.38-15.6Q332.38-16.85 331.78-18.25 331.18-19.65 330.48-20.8ZM384.57-17L384.57-17Q384.57-16.55 384.24-16.35 383.92-16.15 383.52-15.95L383.52-15.95 369.42-9.85Q369.57-8.3 370.24-6.65 370.92-5 372.29-3.9 373.67-2.8 375.87-2.8L375.87-2.8Q377.92-2.8 379.89-3.85 381.87-4.9 383.57-6.2L383.57-6.2 384.12-6.1 384.77-5.2Q383.22-3.75 381.39-2.43 379.57-1.1 377.54-0.25 375.52 0.6 373.37 0.6L373.37 0.6Q370.87 0.6 369.24-0.45 367.62-1.5 366.72-3.23 365.82-4.95 365.44-7.08 365.07-9.2 365.07-11.3L365.07-11.3Q365.07-13.5 365.62-15.6 366.17-17.7 367.62-19.4L367.62-19.4Q369.47-21.55 372.04-22.73 374.62-23.9 377.47-23.9L377.47-23.9Q380.72-23.9 382.64-21.9 384.57-19.9 384.57-17ZM375.72-21.9L375.72-21.9Q374.47-21.9 373.39-21.35 372.32-20.8 371.52-19.8L371.52-19.8Q370.07-18.25 369.64-16.55 369.22-14.85 369.22-13L369.22-13Q369.22-12.8 369.24-12.58 369.27-12.35 369.32-12.1L369.32-12.1 369.52-11.9 379.62-15.9Q379.87-16 380.07-16.3 380.27-16.6 380.27-17.2L380.27-17.2Q380.27-18.25 379.72-19.35 379.17-20.45 378.14-21.18 377.12-21.9 375.72-21.9ZM433.2-17L433.2-17Q433.2-16.55 432.88-16.35 432.55-16.15 432.15-15.95L432.15-15.95 418.05-9.85Q418.2-8.3 418.88-6.65 419.55-5 420.93-3.9 422.3-2.8 424.5-2.8L424.5-2.8Q426.55-2.8 428.53-3.85 430.5-4.9 432.2-6.2L432.2-6.2 432.75-6.1 433.4-5.2Q431.85-3.75 430.03-2.43 428.2-1.1 426.18-0.25 424.15 0.6 422 0.6L422 0.6Q419.5 0.6 417.88-0.45 416.25-1.5 415.35-3.23 414.45-4.95 414.08-7.08 413.7-9.2 413.7-11.3L413.7-11.3Q413.7-13.5 414.25-15.6 414.8-17.7 416.25-19.4L416.25-19.4Q418.1-21.55 420.68-22.73 423.25-23.9 426.1-23.9L426.1-23.9Q429.35-23.9 431.28-21.9 433.2-19.9 433.2-17ZM424.35-21.9L424.35-21.9Q423.1-21.9 422.03-21.35 420.95-20.8 420.15-19.8L420.15-19.8Q418.7-18.25 418.28-16.55 417.85-14.85 417.85-13L417.85-13Q417.85-12.8 417.88-12.58 417.9-12.35 417.95-12.1L417.95-12.1 418.15-11.9 428.25-15.9Q428.5-16 428.7-16.3 428.9-16.6 428.9-17.2L428.9-17.2Q428.9-18.25 428.35-19.35 427.8-20.45 426.78-21.18 425.75-21.9 424.35-21.9ZM465.99-29.1L465.99-29.1 470.19-30.55 470.54-30.3Q470.34-28.15 470.19-26.18 470.04-24.2 469.99-22L469.99-22 470.29-21.75 476.69-21.75 476.94-21.55 476.54-20.25 476.24-20 470.29-20 469.99-19.7 469.99-10.25Q469.99-8.5 470.22-6.75 470.44-5 471.22-3.88 471.99-2.75 473.54-2.75L473.54-2.75Q474.49-2.75 475.74-3.43 476.99-4.1 478.09-4.8L478.09-4.8 478.69-4.7 479.04-3.95Q477.34-2.35 475.19-0.95 473.04 0.45 470.84 0.45L470.84 0.45Q469.99 0.45 468.97 0.13 467.94-0.2 467.24-1.1L467.24-1.1Q466.74-1.8 466.49-2.6 466.24-3.4 466.17-5.1 466.09-6.8 466.09-10.15L466.09-10.15 466.09-19.65 465.79-20 460.19-20 459.94-20.25 460.29-21.45 460.59-21.75 465.79-21.75 466.09-22.05Q466.09-23.95 466.09-26.05 466.09-28.15 465.99-29.1ZM543.62-29.1L543.62-29.1 547.82-30.55 548.17-30.3Q547.97-28.15 547.82-26.18 547.67-24.2 547.62-22L547.62-22 547.92-21.75 554.32-21.75 554.57-21.55 554.17-20.25 553.87-20 547.92-20 547.62-19.7 547.62-10.25Q547.62-8.5 547.84-6.75 548.07-5 548.84-3.88 549.62-2.75 551.17-2.75L551.17-2.75Q552.12-2.75 553.37-3.43 554.62-4.1 555.72-4.8L555.72-4.8 556.32-4.7 556.67-3.95Q554.97-2.35 552.82-0.95 550.67 0.45 548.47 0.45L548.47 0.45Q547.62 0.45 546.59 0.13 545.57-0.2 544.87-1.1L544.87-1.1Q544.37-1.8 544.12-2.6 543.87-3.4 543.79-5.1 543.72-6.8 543.72-10.15L543.72-10.15 543.72-19.65 543.42-20 537.82-20 537.57-20.25 537.92-21.45 538.22-21.75 543.42-21.75 543.72-22.05Q543.72-23.95 543.72-26.05 543.72-28.15 543.62-29.1ZM603.91-2.95L603.91-2.95Q602.16-0.95 599.63-0.13 597.11 0.7 594.46 0.7L594.46 0.7Q591.01 0.7 588.93-0.83 586.86-2.35 585.91-4.75 584.96-7.15 584.76-9.8L584.76-9.8Q584.76-12.4 585.23-15 585.71-17.6 587.51-19.55L587.51-19.55Q589.26-21.5 591.78-22.38 594.31-23.25 596.91-23.25L596.91-23.25Q600.61-23.25 602.76-21.6 604.91-19.95 605.86-17.35 606.81-14.75 606.81-11.95L606.81-11.95Q606.81-9.5 606.18-7.15 605.56-4.8 603.91-2.95ZM595.76-21.3L595.76-21.3Q593.76-21.3 591.96-19.95 590.16-18.6 589.46-15.8L589.46-15.8Q589.26-14.85 589.16-13.9 589.06-12.95 589.06-11.95L589.06-11.95Q589.06-10.4 589.36-8.55 589.66-6.7 590.38-5.08 591.11-3.45 592.43-2.4 593.76-1.35 595.81-1.35L595.81-1.35Q597.86-1.35 599.13-2.25 600.41-3.15 601.11-4.6 601.81-6.05 602.08-7.75 602.36-9.45 602.36-11L602.36-11Q602.36-12.55 602.11-14.33 601.86-16.1 601.18-17.7 600.51-19.3 599.18-20.3 597.86-21.3 595.76-21.3ZM696.43-33.9L696.43-33.9 700.43-34.7 700.73-34.3Q700.23-25.8 700.11-17.15 699.98-8.5 699.98 0L699.98 0 698.18 0Q697.33-1 696.66-1.8 695.98-2.6 694.83-4L694.83-4 686.88-13.9Q683.08-18.65 680.06-22.15 677.03-25.65 675.18-27.75L675.18-27.75Q675.08-27.9 674.93-28.05 674.78-28.2 674.63-28.2L674.63-28.2Q674.38-28.2 674.33-27.88 674.28-27.55 674.28-27.35L674.28-27.35Q674.28-24.95 674.38-21.8 674.48-18.65 674.66-15.15 674.83-11.65 675.06-8.08 675.28-4.5 675.48-1.25L675.48-1.25 671.98 0.25 671.53-0.2Q671.83-6.15 672.01-12.1 672.18-18.05 672.18-23.95L672.18-23.95Q672.18-25.55 672.16-27.18 672.13-28.8 672.13-30.4L672.13-30.4Q672.13-30.95 672.06-31.25 671.98-31.55 671.13-31.9 670.28-32.25 667.88-32.8L667.88-32.8 667.68-34.15 668.08-34.5 676.18-34.5Q678.68-31.2 681.38-27.65 684.08-24.1 686.78-20.63 689.48-17.15 692.03-14.08 694.58-11 696.78-8.65L696.78-8.65Q696.88-8.55 697.03-8.4 697.18-8.25 697.33-8.25L697.33-8.25Q697.53-8.25 697.58-8.43 697.63-8.6 697.63-8.65L697.63-8.65Q697.63-10.55 697.58-12.63 697.53-14.7 697.41-17.48 697.28-20.25 697.06-24.23 696.83-28.2 696.43-33.9ZM751.62-17L751.62-17Q751.62-16.55 751.3-16.35 750.97-16.15 750.57-15.95L750.57-15.95 736.47-9.85Q736.62-8.3 737.3-6.65 737.97-5 739.35-3.9 740.72-2.8 742.92-2.8L742.92-2.8Q744.97-2.8 746.95-3.85 748.92-4.9 750.62-6.2L750.62-6.2 751.17-6.1 751.82-5.2Q750.27-3.75 748.45-2.43 746.62-1.1 744.6-0.25 742.57 0.6 740.42 0.6L740.42 0.6Q737.92 0.6 736.3-0.45 734.67-1.5 733.77-3.23 732.87-4.95 732.5-7.08 732.12-9.2 732.12-11.3L732.12-11.3Q732.12-13.5 732.67-15.6 733.22-17.7 734.67-19.4L734.67-19.4Q736.52-21.55 739.1-22.73 741.67-23.9 744.52-23.9L744.52-23.9Q747.77-23.9 749.7-21.9 751.62-19.9 751.62-17ZM742.77-21.9L742.77-21.9Q741.52-21.9 740.45-21.35 739.37-20.8 738.57-19.8L738.57-19.8Q737.12-18.25 736.7-16.55 736.27-14.85 736.27-13L736.27-13Q736.27-12.8 736.3-12.58 736.32-12.35 736.37-12.1L736.37-12.1 736.57-11.9 746.67-15.9Q746.92-16 747.12-16.3 747.32-16.6 747.32-17.2L747.32-17.2Q747.32-18.25 746.77-19.35 746.22-20.45 745.2-21.18 744.17-21.9 742.77-21.9ZM792.26-23.3L792.26-23.3Q793.46-23.3 794.93-22.85 796.41-22.4 797.61-21.55L797.61-21.55 800.26-23.1 800.51-22.85Q800.21-17.4 800.21-11.95L800.21-11.95Q800.21-10.8 800.13-9.2 800.06-7.6 800.16-6.1 800.26-4.6 800.71-3.6 801.16-2.6 802.16-2.6L802.16-2.6Q802.71-2.6 803.66-2.9 804.61-3.2 805.41-3.5L805.41-3.5 805.76-2.3Q804.76-1.7 803.61-1.03 802.46-0.35 801.36 0.13 800.26 0.6 799.46 0.6L799.46 0.6Q798.06 0.6 797.46-0.25 796.86-1.1 796.61-2.35L796.61-2.35 795.86-2.55Q794.01-1.35 791.96-0.38 789.91 0.6 787.71 0.6L787.71 0.6Q785.61 0.6 784.21-0.3 782.81-1.2 781.96-2.65 781.11-4.1 780.73-5.83 780.36-7.55 780.36-9.25L780.36-9.25Q780.36-11.9 781.03-14.4 781.71-16.9 783.13-18.93 784.56-20.95 786.81-22.13 789.06-23.3 792.26-23.3ZM791.21-2.7L791.21-2.7Q792.66-2.7 794.03-3.4 795.41-4.1 796.51-4.95L796.51-4.95 796.51-16.45Q796.51-17.45 796.41-18.35 796.31-19.25 795.71-19.9L795.71-19.9Q795.06-20.6 794.16-21.08 793.26-21.55 792.31-21.55L792.31-21.55Q789.56-21.55 787.56-19.65L787.56-19.65Q786.71-18.85 785.83-16.7 784.96-14.55 784.86-10.75L784.86-10.75Q784.81-9.2 785.11-7.63 785.41-6.05 786.26-4.75L786.26-4.75Q787.06-3.5 788.43-3.1 789.81-2.7 791.21-2.7ZM837.35-29.1L837.35-29.1 841.55-30.55 841.9-30.3Q841.7-28.15 841.55-26.18 841.4-24.2 841.35-22L841.35-22 841.65-21.75 848.05-21.75 848.3-21.55 847.9-20.25 847.6-20 841.65-20 841.35-19.7 841.35-10.25Q841.35-8.5 841.57-6.75 841.8-5 842.57-3.88 843.35-2.75 844.9-2.75L844.9-2.75Q845.85-2.75 847.1-3.43 848.35-4.1 849.45-4.8L849.45-4.8 850.05-4.7 850.4-3.95Q848.7-2.35 846.55-0.95 844.4 0.45 842.2 0.45L842.2 0.45Q841.35 0.45 840.32 0.13 839.3-0.2 838.6-1.1L838.6-1.1Q838.1-1.8 837.85-2.6 837.6-3.4 837.52-5.1 837.45-6.8 837.45-10.15L837.45-10.15 837.45-19.65 837.15-20 831.55-20 831.3-20.25 831.65-21.45 831.95-21.75 837.15-21.75 837.45-22.05Q837.45-23.95 837.45-26.05 837.45-28.15 837.35-29.1Z" opacity="1" transform="matrix(1,0,0,1,0,0)" fill="#e2f1e6" class="slogan-text-1" data-fill-palette-color="secondary" id="text-1"></path></svg></g></svg></g></svg></g></svg></g><g transform="matrix(1,0,0,1,138.0757777054579,0)"><svg viewBox="0 0 119.36844458908422 119.36844458908422" height="119.36844458908422" width="119.36844458908422"><g><svg></svg></g><g id="icon-0"><svg viewBox="0 0 119.36844458908422 119.36844458908422" height="119.36844458908422" width="119.36844458908422"><g><path d="M0 59.684c0-32.963 26.722-59.684 59.684-59.684 32.963 0 59.684 26.722 59.684 59.684 0 32.963-26.722 59.684-59.684 59.684-32.963 0-59.684-26.722-59.684-59.684zM59.684 116.925c31.613 0 57.241-25.628 57.241-57.241 0-31.613-25.628-57.241-57.241-57.241-31.613 0-57.241 25.628-57.241 57.241 0 31.613 25.628 57.241 57.241 57.241z" data-fill-palette-color="accent" fill="#f2e2de" stroke="transparent"></path></g><g transform="matrix(1,0,0,1,28.6739554802492,27.850827945801555)"><svg viewBox="0 0 62.02053362858582 63.66678869748111" height="63.66678869748111" width="62.02053362858582"><g><svg xmlns="http://www.w3.org/2000/svg" xmlns:xlink="http://www.w3.org/1999/xlink" version="1.1" x="0" y="0" viewBox="5.38104996137775 4.3 89.13405156934074 91.49999999999999" enable-background="new 0 0 100 100" xml:space="preserve" height="63.66678869748111" width="62.02053362858582" class="icon-dxe-0" data-fill-palette-color="accent" id="dxe-0"><path fill="#f2e2de" d="M42.9 21.7C42.2 21.3 41.4 21.1 40.5 21.1 34.4 21.1 20.2 31.1 16.1 38.4 12.1 45.5 18.4 49.9 24.7 53.5 29.6 56.3 32.8 57.5 35.4 57.5 38.2 57.5 40.4 56.1 42 53.3 44.1 49.6 45.8 42.8 46.3 36.2 46.7 30.7 46.4 23.8 42.9 21.7M40.9 25.2C41.6 25.6 42.7 28.5 42.4 35.1 37.4 33.8 33.3 30.4 31.8 29 35.3 26.7 38.7 25.1 40.6 25.1 40.8 25.1 40.9 25.2 40.9 25.2M28.4 31.4C29.5 32.5 34.9 37.5 42 39.1 41.6 41.7 41.1 44.3 40.4 46.5 31.6 43.9 24.8 38.1 22.8 36.2 24.4 34.6 26.4 32.9 28.4 31.4M35.3 53.5C33.5 53.5 30.7 52.4 26.6 50.1 17.8 45.1 18.1 42.9 19.5 40.5 19.7 40.1 20 39.8 20.2 39.4 22.6 41.7 29.7 47.6 39 50.4 38.8 50.8 38.7 51.1 38.5 51.4 37.4 53.3 36.3 53.5 35.3 53.5" data-fill-palette-color="accent"></path><path fill="#f2e2de" d="M74.9 67.8C73.8 65.7 74.1 64.9 74.4 63.8 74.7 62.9 75 61.7 74.5 60.2 74 58.9 72.9 58.1 72.1 57.4 71.4 56.9 70.8 56.4 70.5 55.8 70 55 70.6 53.1 71 52.2 71.3 51.5 71.2 50.7 70.8 50.1S69.6 49.2 68.8 49.4C68.6 49.4 64.5 50.4 59.9 54.5 58.6 55.7 57.7 57.2 57 58.3 56.7 58.8 56.4 59.4 56.1 59.8 55.3 58.3 53.7 57.4 52 57.4 51.3 57.4 50.7 57.5 50 57.8L25 69.2C23.8 69.7 22.9 70.7 22.5 71.9 22.1 72.9 22.1 74.1 22.5 75.1 22 75.1 21.4 74.9 20.7 74.8 19.4 74.5 17.7 74.2 15.9 74.4 9.8 75.1 6.4 77.6 6.2 77.7 5.6 78.2 5.3 78.9 5.4 79.7S6.1 81.1 6.8 81.3C7.8 81.6 9.5 82.4 9.9 83.2 10.2 83.8 10.1 84.5 10.1 85.4 10 86.5 9.9 87.8 10.6 89.1 11.4 90.6 12.5 91.1 13.4 91.5 14.4 91.9 15.2 92.3 16.1 94.5 16.4 95.3 17.1 95.8 18 95.8 18.8 95.8 19.6 95.3 19.9 94.5 21 91.6 24.1 86.1 27 85.2L27.2 85.6C28 87.3 29.7 88.4 31.5 88.4 32.2 88.4 32.8 88.3 33.5 88L58.5 76.6C60.9 75.5 61.9 72.7 60.9 70.3L60.7 69.9C63.3 68.3 69.5 69.6 72.4 70.6 73.2 70.9 74 70.6 74.6 70 75.1 69.4 75.2 68.5 74.9 67.8M17.8 89.5C16.8 88.5 15.9 88.1 15.2 87.8S14.4 87.4 14.3 87.2C14.2 86.9 14.2 86.3 14.3 85.7 14.4 84.5 14.5 83.1 13.8 81.5 13.4 80.6 12.8 79.9 12.1 79.3 13.3 78.9 14.8 78.5 16.6 78.3 17.8 78.2 19 78.4 20.1 78.6 21.5 78.9 22.9 79.2 24.3 78.8L25.5 81.4C22 82.8 19.3 86.6 17.8 89.5M56.8 72.8L31.8 84.2C31.7 84.2 31.6 84.3 31.5 84.3 31.3 84.3 31 84.2 30.8 83.9L26.3 73.9C26.2 73.6 26.2 73.4 26.3 73.3 26.3 73.2 26.5 73 26.7 72.9L51.7 61.6C51.8 61.6 51.9 61.5 52 61.5 52.2 61.5 52.6 61.6 52.7 62L57.2 72C57.4 72.2 57.2 72.7 56.8 72.8M70.5 62.6C70.3 63.4 70 64.4 70.1 65.7 66.9 65 62.3 64.4 59 66.1L57.8 63.5C59 62.7 59.7 61.4 60.4 60.2 61 59.2 61.6 58.1 62.5 57.3 63.8 56.1 65.1 55.2 66.2 54.6 66.2 55.5 66.3 56.5 66.7 57.3 67.4 58.8 68.6 59.7 69.5 60.4 70 60.8 70.5 61.2 70.6 61.4 70.8 61.8 70.7 61.9 70.5 62.6" data-fill-palette-color="accent"></path><path fill="none" d="M74.9 8.3C74.1 8.3 73.3 8.4 72.5 8.5 67.3 9.3 63.2 12.7 61.2 17.1L85.9 13.1C83.2 10.2 79.2 8.3 74.9 8.3"></path><path fill="none" d="M74.9 38.3C75.7 38.3 76.5 38.2 77.3 38.1 82.8 37.2 87.1 33.4 89 28.5L63.2 32.7C65.9 36.1 70.1 38.3 74.9 38.3"></path><g fill="#f2e2de" data-fill-palette-color="accent"><path fill="#f2e2de" d="M94.5 25.6L92.6 14.1C92.5 13.6 92.2 13.1 91.8 12.8S90.9 12.4 90.4 12.4C87 7.4 81.2 4.3 74.8 4.3 73.8 4.3 72.8 4.4 71.7 4.5 64.3 5.7 58.6 11.1 56.5 17.8L55.9 18C54.8 18.2 54.1 19.2 54.2 20.3L56.1 31.8C56.2 32.3 56.5 32.8 56.9 33.1 57.2 33.3 57.7 33.5 58.1 33.5H58.4L58.8 33.4C62.2 38.8 68.1 42.3 74.9 42.3 75.9 42.3 76.9 42.2 78 42.1 85.8 40.8 91.7 35 93.4 27.7 94.2 27.3 94.6 26.5 94.5 25.6M72.5 8.5C73.3 8.4 74.1 8.3 74.9 8.3 79.2 8.3 83.2 10.1 85.9 13.1L61.2 17.1C63.2 12.7 67.3 9.3 72.5 8.5M58.5 21.6L60 21.4 88.4 16.8 89 16.7 90.2 24.2 89.8 24.3 61 29 59.7 29.2zM77.3 38.1C76.5 38.2 75.7 38.3 74.9 38.3 70.2 38.3 65.9 36.1 63.2 32.7L89 28.5C87.1 33.4 82.8 37.2 77.3 38.1" data-fill-palette-color="accent"></path><path fill="#f2e2de" d="M86.8 84.2L79.6 39.8C79.4 38.7 78.4 38 77.3 38.1 76.2 38.3 75.5 39.3 75.6 40.4L82.8 84.8C83 85.8 83.8 86.5 84.8 86.5H85.1C86.2 86.3 87 85.3 86.8 84.2" data-fill-palette-color="accent"></path></g></svg></g></svg></g></svg></g></svg></g><g></g></svg></g><defs></defs></svg><rect width="395.52" height="182.3971075113863" fill="none" stroke="none" visibility="hidden"></rect></g></svg></g></svg>